<svg width="309" height="451" viewBox="0 0 309 451" fill="none" xmlns="http://www.w3.org/2000/svg">
    <path d="M308.106 150.489C309.506 148.589 308.106 145.989 305.806 145.989H245.206C243.506 145.989 242.106 147.389 242.106 149.089V187.189L181.606 288.589C179.906 291.489 175.406 290.289 175.406 286.889V102.889H223.706C225.706 102.889 226.906 100.489 225.506 98.8889C198.606 67.0889 175.206 21.3889 165.906 2.18889C164.406 -0.811108 160.106 -0.711126 158.906 2.38887C148.806 26.8889 113.806 84.2889 104.606 99.2889C103.606 100.889 104.806 102.889 106.606 102.889H151.306L152.206 263.689C152.206 268.989 145.406 271.189 142.406 266.789L72.4056 167.289L84.6057 137.589C85.5057 135.289 83.9056 132.789 81.4056 132.789H12.5056C9.40563 132.789 7.60563 136.289 9.50563 138.789L113.606 279.689C117.806 285.389 111.906 293.089 105.306 290.489C52.5056 269.689 17.6057 290.189 2.10566 303.189C-1.49434 306.189 -0.294386 312.089 4.30561 313.289C19.2056 317.189 22.9056 330.589 23.4056 341.189C23.6056 344.689 27.9056 346.189 30.2056 343.589C49.5056 322.289 89.1057 310.789 110.106 334.189C134.206 360.989 103.706 395.389 103.706 395.389L152.306 450.189L194.206 398.289C165.506 374.089 169.706 322.589 214.806 322.589C241.706 322.589 259.106 337.689 268.806 349.789C271.406 353.089 276.706 351.389 277.006 347.189C278.206 329.589 288.106 321.789 294.506 318.489C297.106 317.189 297.706 313.689 295.606 311.589C267.406 283.189 234.006 284.989 216.706 288.589C212.806 289.389 210.006 285.089 212.306 281.889L308.106 150.489ZM177.006 398.789L152.306 430.189L119.906 394.889C119.906 394.889 131.706 377.489 131.706 359.389C131.706 341.289 119.906 326.289 119.906 326.289L122.606 293.189C125.806 283.689 139.406 284.089 142.106 293.689C146.906 310.889 152.906 332.389 158.006 351.089C168.706 389.889 177.006 398.789 177.006 398.789Z"
          fill="white"/>
</svg>
