<svg width="736" height="736" viewBox="0 0 736 736" fill="none" xmlns="http://www.w3.org/2000/svg">
    <g filter="url(#filter0_i_114_13)">
        <path d="M367.8 735.6C570.93 735.6 735.6 570.93 735.6 367.8C735.6 164.67 570.93 0 367.8 0C164.67 0 0 164.67 0 367.8C0 570.93 164.67 735.6 367.8 735.6Z"
              fill="#F40602"/>
        <path d="M367.8 27.2864C179.765 27.2864 27.2866 179.765 27.2866 367.8C27.2866 555.835 179.765 708.314 367.8 708.314C555.836 708.314 708.314 555.835 708.314 367.8C708.314 179.765 555.836 27.2864 367.8 27.2864ZM367.8 694.458C187.399 694.458 41.1419 548.201 41.1419 367.8C41.1419 187.399 187.399 41.1416 367.8 41.1416C548.201 41.1416 694.459 187.399 694.459 367.8C694.459 548.201 548.201 694.458 367.8 694.458Z"
              fill="white"/>
        <path d="M255.403 148.732C177.149 148.732 113.74 231.368 113.74 333.374C113.74 435.38 177.149 517.946 255.403 517.946C333.657 517.946 397.066 435.309 397.066 333.303C397.066 231.298 333.657 148.732 255.403 148.732ZM255.403 502.747C185.632 502.747 129.009 426.897 129.009 333.303C129.009 239.71 185.632 163.859 255.403 163.859C325.174 163.859 381.797 239.71 381.797 333.303C381.797 426.897 325.174 502.747 255.403 502.747Z"
              fill="white"/>
        <path d="M266.642 209.03H247.273V274.419H266.642V209.03Z" fill="white"/>
        <path d="M294.848 259.432C301.056 259.432 306.088 254.4 306.088 248.193C306.088 241.985 301.056 236.953 294.848 236.953C288.641 236.953 283.608 241.985 283.608 248.193C283.608 254.4 288.641 259.432 294.848 259.432Z"
              fill="white"/>
        <path d="M238.649 358.822L210.656 327.224L231.156 305.239C245.789 289.617 234.69 264.098 213.271 264.098H170.151C168.454 264.098 167.111 265.441 167.111 267.138V411.981C167.111 412.971 167.888 413.749 168.878 413.749H213.978C242.396 413.749 257.523 380.1 238.649 358.822ZM183.723 289.264C183.723 284.881 187.328 281.276 191.711 281.276H210.939C216.523 281.276 219.563 287.779 215.958 292.091L201.183 309.693C199.204 312.026 195.67 312.096 193.62 309.834L185.49 300.927C184.289 299.655 183.652 297.958 183.652 296.191V289.264H183.723ZM213.696 392.754H187.399C185.561 392.754 184.006 391.269 184.006 389.361V337.262C184.006 334.859 186.975 333.657 188.671 335.353L223.027 370.84C230.873 379.111 225.077 392.754 213.696 392.754Z"
              fill="white"/>
        <path d="M349.916 294.353C351.824 288.91 349.279 282.972 343.978 280.639C338.817 278.377 332.384 276.115 327.224 276.115C316.762 276.115 304.886 284.315 297.181 334.505C289.476 384.695 299.231 422.302 321.569 419.333C330.547 418.131 335.848 415.304 338.959 412.335C342.705 408.73 342.988 402.862 339.736 398.833C337.474 396.005 333.586 395.157 330.264 396.571C328.991 397.137 327.648 397.49 326.234 397.49C321.64 397.49 311.39 380.242 317.186 341.998C322.983 303.755 326.234 299.019 331.183 297.11C333.021 296.403 336.202 297.393 339.241 298.807C343.412 300.786 348.36 298.736 349.916 294.353Z"
              fill="white"/>
        <path d="M283.184 288.203L289.051 302.483C289.829 304.391 288.769 306.512 286.86 307.077L274.277 310.753C265.582 313.298 260.775 322.629 263.886 331.112L297.251 423.999C310.4 460.616 270.319 493.487 237.024 473.411L197.225 449.447C195.317 448.316 194.963 445.701 196.518 444.145L206.273 433.966C207.334 432.835 209.101 432.552 210.444 433.33L249.536 455.456C265.512 464.504 284.032 448.74 277.67 431.492L243.527 338.959C236.599 320.226 245.931 299.443 264.451 292.091L278.801 286.365C280.569 285.658 282.477 286.436 283.184 288.203Z"
              fill="white"/>
        <path d="M614.084 425.766C615.074 424.423 614.084 422.585 612.458 422.585H569.62C568.418 422.585 567.429 423.574 567.429 424.776V451.709L524.661 523.389C523.459 525.439 520.278 524.59 520.278 522.187V392.117H554.422C555.835 392.117 556.684 390.421 555.694 389.29C536.678 366.81 520.137 334.505 513.563 320.933C512.503 318.812 509.463 318.883 508.615 321.074C501.475 338.393 476.733 378.969 470.23 389.573C469.523 390.704 470.371 392.117 471.644 392.117H503.242L503.878 505.787C503.878 509.533 499.071 511.089 496.951 507.978L447.468 437.642L456.092 416.647C456.728 415.021 455.597 413.254 453.83 413.254H405.124C402.933 413.254 401.661 415.728 403.004 417.495L476.592 517.097C479.561 521.127 475.39 526.57 470.725 524.732C433.4 510.028 408.73 524.52 397.773 533.709C395.228 535.83 396.076 540.001 399.328 540.849C409.861 543.606 412.476 553.079 412.83 560.572C412.971 563.046 416.011 564.106 417.637 562.268C431.28 547.211 459.273 539.082 474.118 555.623C491.154 574.568 469.594 598.886 469.594 598.886L503.949 637.624L533.568 600.936C513.28 583.829 516.249 547.423 548.13 547.423C567.146 547.423 579.446 558.097 586.303 566.651C588.141 568.984 591.887 567.782 592.099 564.813C592.948 552.372 599.946 546.858 604.47 544.525C606.308 543.606 606.732 541.132 605.248 539.647C585.313 519.571 561.703 520.844 549.473 523.389C546.716 523.954 544.737 520.915 546.363 518.652L614.084 425.766ZM521.409 601.289L503.949 623.486L481.045 598.532C481.045 598.532 489.387 586.232 489.387 573.437C489.387 560.642 481.045 550.039 481.045 550.039L482.954 526.64C485.216 519.925 494.83 520.208 496.739 526.994C500.132 539.153 504.373 554.351 507.978 567.57C515.542 594.998 521.409 601.289 521.409 601.289Z"
              fill="white"/>
    </g>
    <defs>
        <filter id="filter0_i_114_13" x="-70" y="-70" width="805.6" height="805.6" filterUnits="userSpaceOnUse"
                color-interpolation-filters="sRGB">
            <feFlood flood-opacity="0" result="BackgroundImageFix"/>
            <feBlend mode="normal" in="SourceGraphic" in2="BackgroundImageFix" result="shape"/>
            <feColorMatrix in="SourceAlpha" type="matrix" values="0 0 0 0 0 0 0 0 0 0 0 0 0 0 0 0 0 0 127 0" result="hardAlpha"/>
            <feOffset dx="-71" dy="-159"/>
            <feGaussianBlur stdDeviation="35"/>
            <feComposite in2="hardAlpha" operator="arithmetic" k2="-1" k3="1"/>
            <feColorMatrix type="matrix" values="0 0 0 0 0 0 0 0 0 0 0 0 0 0 0 0 0 0 0.2 0"/>
            <feBlend mode="normal" in2="shape" result="effect1_innerShadow_114_13"/>
        </filter>
    </defs>
</svg>
