<svg width="205" height="282" viewBox="0 0 205 282" fill="none" xmlns="http://www.w3.org/2000/svg">
<path fill-rule="evenodd" clip-rule="evenodd" d="M105.088 281.07C103.729 282.304 101.653 282.311 100.286 281.086L73.9424 257.482C73.9229 257.463 73.9036 257.443 73.8846 257.423C73.3834 256.929 73.0429 256.274 72.9485 255.542C72.9192 255.358 72.9149 254.942 72.9318 254.872C72.9571 254.548 73.0305 254.238 73.1447 253.947C73.1588 253.881 73.2548 253.678 73.2938 253.623C73.4115 253.401 73.5544 253.194 73.7187 253.006C77.2913 247.682 79.3191 241.28 79.3191 234.394C79.3191 215.919 64.2863 200.92 45.77 200.92C33.9547 200.92 23.5578 207.028 17.58 216.248C17.0873 216.634 16.7474 216.912 16.5877 217.049C15.5521 217.926 14.0977 218.119 12.8674 217.544C11.637 216.969 10.8574 215.73 10.8731 214.376C10.8753 214.316 10.8758 214.255 10.8758 214.194C10.8758 208.718 7.3109 204.009 2.22116 201.963C1.17003 201.537 0.385488 200.637 0.108143 199.541C-0.169202 198.444 0.0939542 197.282 0.816664 196.41C8.46419 187.306 25.3698 180.971 44.9767 180.971C57.4257 180.971 68.7856 183.525 77.3778 187.72L77.4035 187.669C77.9949 187.96 78.6604 188.123 79.3639 188.123C81.8152 188.123 83.8053 186.141 83.8053 183.699C83.8053 182.425 83.2642 181.276 82.3985 180.469C82.1597 180.326 10.9009 91.4862 10.9009 91.4862C10.0542 90.4282 9.89049 88.9806 10.4798 87.7615C11.0692 86.5424 12.3073 85.7674 13.6655 85.7674H53.3862C54.6249 85.7674 55.7731 86.4131 56.4132 87.4696C57.0533 88.526 57.0919 89.8393 56.5148 90.9312L52.6039 98.3318C52.0371 99.4042 52.0635 100.692 52.6738 101.74L92.4297 170.042C92.6755 170.692 93.3064 171.156 94.0449 171.156C94.9972 171.156 95.7702 170.385 95.7702 169.437C95.7702 169.41 95.7696 169.383 95.7684 169.357L95.7708 169.355V66.0629H72.7703C71.5256 66.0629 70.3696 65.4208 69.7153 64.3659C69.061 63.311 69.0014 61.9938 69.5581 60.8846L99.1339 1.95309C99.7346 0.756029 100.963 0 102.306 0C102.383 0 102.5 6.85453e-06 102.5 6.85453e-06C102.5 6.85453e-06 102.617 0 102.694 0C104.037 0 105.265 0.756177 105.866 1.95309L135.442 60.8846C135.999 61.9938 135.939 63.311 135.285 64.3659C134.63 65.4207 133.474 66.0629 132.23 66.0629H109.229V169.355L109.232 169.357C109.23 169.383 109.23 169.41 109.23 169.437C109.23 170.385 110.003 171.156 110.955 171.156C111.694 171.156 112.324 170.692 112.57 170.042L152.326 101.74C152.936 100.692 152.963 99.4043 152.396 98.3318L148.485 90.9312C147.908 89.8391 147.947 88.526 148.587 87.4696C149.227 86.4131 150.375 85.7674 151.614 85.7674H191.335C192.693 85.7674 193.931 86.5424 194.52 87.7615C195.11 88.9806 194.946 90.4282 194.099 91.4862C194.099 91.4862 122.84 180.326 122.601 180.469C121.736 181.277 121.195 182.425 121.195 183.699C121.195 186.141 123.185 188.123 125.636 188.123C126.34 188.123 127.005 187.96 127.597 187.669L127.622 187.72C136.214 183.525 147.574 180.971 160.023 180.971C179.63 180.971 196.536 187.306 204.183 196.41C204.906 197.282 205.169 198.444 204.892 199.541C204.615 200.637 203.83 201.537 202.779 201.963C197.689 204.009 194.124 208.718 194.124 214.194C194.124 214.255 194.125 214.316 194.127 214.376C194.143 215.73 193.363 216.969 192.133 217.544C190.902 218.119 189.448 217.926 188.412 217.049C188.252 216.912 187.913 216.634 187.42 216.248C181.442 207.028 171.045 200.92 159.23 200.92C140.714 200.92 125.681 215.919 125.681 234.394C125.681 241.28 127.709 247.682 131.281 253.006C131.446 253.194 131.589 253.401 131.706 253.623C131.745 253.679 131.841 253.882 131.855 253.947C131.97 254.238 132.043 254.548 132.068 254.872C132.085 254.942 132.081 255.358 132.051 255.542C131.957 256.274 131.616 256.929 131.115 257.423C131.096 257.443 131.077 257.463 131.058 257.482L105.088 281.07ZM102.427 270.555L121.904 255.352L102.427 203.44L83.0964 255.352L102.427 270.555Z" fill="white"/>
</svg>
